<?xml version="1.0" encoding="UTF-8"?>
<svg xmlns="http://www.w3.org/2000/svg" xmlns:xlink="http://www.w3.org/1999/xlink" id="Calque_1" version="1.1" viewBox="0 0 512 512">
  <!-- Generator: Adobe Illustrator 29.2.1, SVG Export Plug-In . SVG Version: 2.1.0 Build 116)  -->
  <path d="M312.3,463.9h-112.6c-6.9,0-12.5-5.6-12.5-12.5s5.6-12.5,12.5-12.5h112.6c6.9,0,12.5,5.6,12.5,12.5s-5.6,12.5-12.5,12.5Z"></path>
  <path d="M285.1,508.5h-58.2c-6.9,0-12.5-5.6-12.5-12.5s5.6-12.5,12.5-12.5h58.2c6.9,0,12.5,5.6,12.5,12.5s-5.6,12.5-12.5,12.5Z"></path>
  <path d="M256,60.5c-6.9,0-12.5-5.6-12.5-12.5V16c0-6.9,5.6-12.5,12.5-12.5s12.5,5.6,12.5,12.5v32c0,6.9-5.6,12.5-12.5,12.5Z"></path>
  <path d="M405.8,129.8c-3.2,0-6.4-1.2-8.8-3.6-4.9-4.9-4.9-12.8,0-17.7l25.9-26c4.9-4.9,12.8-4.9,17.7,0,4.9,4.9,4.9,12.8,0,17.7l-25.9,26c-2.5,2.3-5.7,3.6-8.9,3.6Z"></path>
  <path d="M106.2,129.8c-3.2,0-6.4-1.2-8.9-3.7l-25.9-26c-4.9-4.9-4.9-12.8,0-17.7,4.9-4.9,12.8-4.9,17.7,0l25.9,26c4.9,4.9,4.9,12.8,0,17.7-2.4,2.4-5.6,3.7-8.8,3.7Z"></path>
  <rect x="243.5" y="282.2" width="25" height="121.4"></rect>
  <path d="M256.3,294.7c-3.2,0-6.4-1.2-8.8-3.6-4.9-4.9-4.9-12.8,0-17.7l42.9-43c4.9-4.9,12.8-4.9,17.7,0,4.9,4.9,4.9,12.8,0,17.7l-42.9,43c-2.5,2.3-5.7,3.6-8.9,3.6Z"></path>
  <path d="M255.7,294.7c-3.2,0-6.4-1.2-8.9-3.7l-42.8-43c-4.9-4.9-4.9-12.8,0-17.7s12.8-4.9,17.7,0l42.9,43c4.9,4.9,4.9,12.8,0,17.7-2.5,2.4-5.7,3.7-8.9,3.7Z"></path>
  <path d="M313,412.9h-125l-.7-11.7c-.7-11-4.6-29.4-10.9-35.8-1.4-1.4-4.4-3.7-7.5-6.1-21.7-16.7-66.7-51.5-66.7-130s19.4-80.8,54.5-109.1c29-23.4,67.2-37.9,99.8-37.9s70.8,14.5,99.8,37.9c35.1,28.3,54.5,67.1,54.5,109.1,0,78.6-45.1,113.3-66.7,130-3.2,2.4-6.2,4.7-7.5,6.1-6.3,6.3-10.2,24.7-10.9,35.8l-.8,11.7h-11.9ZM210.8,387.9h91.1c2-11.9,6.5-29.8,16.8-40.1,2.5-2.5,5.8-5.1,10-8.3,19.9-15.4,57-43.9,57-110.2s-24.6-73.1-45.2-89.7c-24.8-19.9-57-32.3-84.1-32.3s-59.4,12.4-84.1,32.3c-20.6,16.6-45.2,45.6-45.2,89.7,0,66.3,37.1,94.9,57,110.2,4.2,3.2,7.4,5.7,10,8.3,10.2,10.3,14.7,28.2,16.7,40.1Z"></path>
</svg>
