<svg xmlns="http://www.w3.org/2000/svg" viewBox="0 0 512 512">
	<style type="text/css">.st0{fill:#fff;}</style>
	<path class="st0" d="M255.6,208.7H77.9c-6.9,0-12.5-5.6-12.5-12.5s5.6-12.5,12.5-12.5h177.7c6.9,0,12.5,5.6,12.5,12.5S262.5,208.7,255.6,208.7z"/>
	<path class="st0" d="M255.6,256.5H77.9c-6.9,0-12.5-5.6-12.5-12.5s5.6-12.5,12.5-12.5h177.7c6.9,0,12.5,5.6,12.5,12.5S262.5,256.5,255.6,256.5z"/>
	<path class="st0" d="M176.1,304.2H77.9c-6.9,0-12.5-5.6-12.5-12.5s5.6-12.5,12.5-12.5h98.2c6.9,0,12.5,5.6,12.5,12.5S183,304.2,176.1,304.2z"/>
	<path class="st0" d="M83.3,456c-1.5,0-3-0.3-4.5-0.8c-4.8-1.9-8-6.5-8-11.7v-70.6H44.2c-22.4,0-40.7-18.2-40.7-40.7V160.6c0-22.4,18.2-40.7,40.7-40.7h245.2c22.4,0,40.7,18.2,40.7,40.7v171.5c0,22.4-18.2,40.7-40.7,40.7h-92c-6.9,0-12.5-5.6-12.5-12.5s5.6-12.5,12.5-12.5h92c8.6,0,15.7-7,15.7-15.7V160.6c0-8.6-7-15.7-15.7-15.7H44.2c-8.6,0-15.7,7-15.7,15.7v171.5c0,8.6,7,15.7,15.7,15.7h39.2c6.9,0,12.5,5.6,12.5,12.5v50.5l52.9-58.9c4.6-5.1,12.5-5.6,17.7-0.9c5.1,4.6,5.6,12.5,0.9,17.7l-74.7,83.1C90.2,454.5,86.8,456,83.3,456z"/>
	<path class="st0" d="M428.7,392.1c-3.5,0-6.9-1.5-9.3-4.1l-74.7-83.1c-4.6-5.1-4.2-13,0.9-17.7s13-4.2,17.7,0.9l52.9,58.9v-50.5c0-6.9,5.6-12.5,12.5-12.5h39.2c8.6,0,15.7-7,15.7-15.7V96.7c0-8.6-7-15.7-15.7-15.7H222.6c-8.6,0-15.7,7-15.7,15.7c0,6.9-5.6,12.5-12.5,12.5S182,103.6,182,96.7c0-22.4,18.2-40.7,40.7-40.7h245.2c22.4,0,40.7,18.2,40.7,40.7v171.5c0,22.4-18.2,40.7-40.7,40.7h-26.7v70.6c0,5.2-3.2,9.8-8,11.7C431.7,391.8,430.2,392.1,428.7,392.1z"/>
</svg>
