<svg xmlns="http://www.w3.org/2000/svg" viewBox="0 0 512 512">
	<style type="text/css">.st0{fill:#fff;}</style>
	<path class="st0" d="M84.6,483.1l-18.7-16.5c27.4-31.1,50.7-38.2,53.2-39c1-0.3,2-0.4,3-0.5l165.2-4.5l6.6-1.7l177.2-95c10.4-5.6,15.3-17.8,10.5-26.6c-4.5-8.3-16.5-10.3-27.3-4.5c-0.1,0-0.2,0.1-0.2,0.1l-86.1,44l-11.4-22.3l86-43.9c23.1-12.3,49.9-5.9,61,14.8c11.3,21.1,2,48.2-20.8,60.4l-178.6,95.7c-0.9,0.5-1.9,0.9-2.9,1.1l-9.4,2.4c-0.9,0.2-1.8,0.3-2.7,0.4l-164.6,4.5C120.2,453.8,103.8,461.3,84.6,483.1z"/>
	<path class="st0" d="M24.5,396.5L7.5,378.1l76.2-70.2l0.8-0.5c40.1-27,86.3-14.3,91.1-12.8c19,4.9,54.5,6.3,57.4,6.4h65.2c26.4,0,47.9,19.5,47.9,43.4c0,23.9-21.5,43.4-47.9,43.4h-90.4v-25h90.4c12.4,0,22.9-8.4,22.9-18.4c0-10-10.5-18.4-22.9-18.4l-65.8,0c-1.7-0.1-41-1.4-63.4-7.2l-0.6-0.2c-0.3-0.1-38.1-11.3-69.2,9.1L24.5,396.5z"/>
	<path class="st0" d="M130.5,272.1h-25v-50.7c0-3.6,1.5-6.9,4.2-9.3L252.2,84.4c1-0.9,2.1-1.6,3.4-2.2c1.5-0.7,3.2-1,4.9-1c0,0,0,0,0,0s0,0,0,0c0,0,0,0,0,0c0,0,0,0,0,0s0,0,0,0c0.7,0,1.4,0.1,2.1,0.2c2.3,0.4,4.5,1.4,6.3,3L411.5,212c2.6,2.4,4.2,5.8,4.2,9.3V267h-25v-40.1L260.6,110.4L130.5,226.9V272.1z"/>
	<polygon class="st0" points="445.4,214.8 260.5,53.7 157.3,143.5 157.3,78.1 140.3,78.1 140.3,158.3 75.8,214.8 59.3,196 115.3,146.9 115.3,53.1 182.3,53.1 182.3,88.6 260.5,20.6 461.8,196 	"/>
</svg>
